<?xml version="1.0" encoding="UTF-8"?>
<svg id="Capa_1" data-name="Capa 1" xmlns="http://www.w3.org/2000/svg" version="1.1" viewBox="0 0 1581.7 399.56">
  <defs>
    <style>
      .cls-1 {
        fill: #0b003b;
      }

      .cls-1, .cls-2 {
        stroke-width: 0px;
      }

      .cls-2 {
        fill: #ff366c;
      }
    </style>
  </defs>
  <g>
    <path class="cls-2" d="M1202.84,306.4c-59.36,0-107.65-48.29-107.65-107.65s48.29-107.65,107.65-107.65,107.65,48.29,107.65,107.65-48.29,107.65-107.65,107.65ZM1202.84,128.36c-38.81,0-70.39,31.58-70.39,70.39s31.58,70.39,70.39,70.39,70.39-31.58,70.39-70.39-31.58-70.39-70.39-70.39Z"/>
    <path class="cls-2" d="M1291.86,306.4h-89.02c-10.29,0-18.63-8.34-18.63-18.63s8.34-18.63,18.63-18.63h70.39v-70.39c0-10.29,8.34-18.63,18.63-18.63s18.63,8.34,18.63,18.63v89.02c0,10.29-8.34,18.63-18.63,18.63Z"/>
  </g>
  <g>
    <path class="cls-1" d="M98.34,91.09c-25.45,0-48.65,12.42-61.07,28.22V18.63C37.26,8.34,28.92,0,18.63,0S0,8.34,0,18.63v267.06c0,10.29,8.34,18.63,18.63,18.63s18.63-8.34,18.63-18.63v-78.67c0-51.76,22.83-78.67,61.07-78.67s61.07,29.41,61.07,78.67v78.67c0,10.29,8.34,18.63,18.63,18.63s18.63-8.34,18.63-18.63v-80.74c0-66.25-33.12-113.86-98.34-113.86Z"/>
    <path class="cls-1" d="M367.82,306.4c-59.36,0-107.65-48.29-107.65-107.65s48.29-107.65,107.65-107.65,107.65,48.29,107.65,107.65-48.29,107.65-107.65,107.65ZM367.82,128.36c-38.81,0-70.39,31.58-70.39,70.39s31.58,70.39,70.39,70.39,70.39-31.58,70.39-70.39-31.58-70.39-70.39-70.39Z"/>
    <path class="cls-1" d="M645.92,306.4c-59.36,0-107.65-48.29-107.65-107.65s48.29-107.65,107.65-107.65,107.65,48.29,107.65,107.65-48.29,107.65-107.65,107.65ZM645.92,128.36c-38.81,0-70.39,31.58-70.39,70.39s31.58,70.39,70.39,70.39,70.39-31.58,70.39-70.39-31.58-70.39-70.39-70.39Z"/>
    <path class="cls-1" d="M645.92,399.56c-10.29,0-18.63-8.34-18.63-18.63s8.34-18.63,18.63-18.63c70.39,0,72.46-66.25,72.46-86.95l-2.07-76.6c0-10.29,8.34-18.63,18.63-18.63s18.63,8.34,18.63,18.63v84.88c0,16.3-2.67,47.57-20.56,73.88-13.05,19.19-38.75,42.06-87.09,42.06Z"/>
    <path class="cls-1" d="M645.92,399.56c-50.11,0-75.77-24-88.46-44.13-5.49-8.71-2.88-20.21,5.82-25.7,8.7-5.48,20.21-2.88,25.7,5.82,11.19,17.74,30.35,26.74,56.94,26.74,10.29,0,18.63,8.34,18.63,18.63s-8.34,18.63-18.63,18.63Z"/>
    <path class="cls-1" d="M1391.23,306.4c-4.66,0-9.32-1.73-12.94-5.23-7.4-7.14-7.61-18.94-.47-26.35l171.83-178.04c7.15-7.4,18.94-7.61,26.35-.47,7.4,7.14,7.61,18.94.47,26.35l-171.83,178.04c-3.66,3.79-8.53,5.69-13.41,5.69Z"/>
    <path class="cls-1" d="M1563.07,306.4c-4.88,0-9.75-1.9-13.41-5.69l-171.83-178.04c-7.15-7.4-6.94-19.2.47-26.35,7.4-7.14,19.2-6.94,26.35.47l171.83,178.04c7.15,7.4,6.94,19.2-.47,26.35-3.61,3.49-8.28,5.23-12.94,5.23Z"/>
    <path class="cls-1" d="M924.04,306.4c-59.36,0-107.65-48.29-107.65-107.65s48.29-107.65,107.65-107.65,107.65,48.29,107.65,107.65-48.29,107.65-107.65,107.65ZM924.04,128.36c-38.81,0-70.39,31.58-70.39,70.39s31.58,70.39,70.39,70.39,70.39-31.58,70.39-70.39-31.58-70.39-70.39-70.39Z"/>
    <path class="cls-1" d="M924.04,399.56c-10.29,0-18.63-8.34-18.63-18.63s8.34-18.63,18.63-18.63c70.39,0,72.46-66.25,72.46-86.95l-2.07-76.6c0-10.29,8.34-18.63,18.63-18.63s18.63,8.34,18.63,18.63v84.88c0,16.3-2.67,47.57-20.56,73.88-13.05,19.19-38.75,42.06-87.09,42.06Z"/>
    <path class="cls-1" d="M924.04,399.56c-50.11,0-75.77-24-88.46-44.13-5.49-8.71-2.88-20.21,5.82-25.7,8.7-5.48,20.21-2.88,25.7,5.82,11.19,17.74,30.35,26.74,56.94,26.74,10.29,0,18.63,8.34,18.63,18.63s-8.34,18.63-18.63,18.63Z"/>
  </g>
</svg>